<?xml version="1.0" encoding="UTF-8"?>
<!--Generator: Apple Native CoreSVG 326-->
<!DOCTYPE svg
PUBLIC "-//W3C//DTD SVG 1.1//EN"
       "http://www.w3.org/Graphics/SVG/1.1/DTD/svg11.dtd">
<svg version="1.1" xmlns="http://www.w3.org/2000/svg" xmlns:xlink="http://www.w3.org/1999/xlink" viewBox="0 0 50.2337 34.1047">
 <g>
  <rect height="34.1047" opacity="0" width="50.2337" x="0" y="0"/>
  <path d="M38.9186 9.62769L38.9186 20.6623C38.2362 20.7052 37.6106 21.013 37.1886 21.4911L37.1886 10.087C37.1886 9.19225 36.7413 8.74488 35.8411 8.74488L14.3921 8.74488C13.4918 8.74488 13.055 9.19225 13.055 10.087L13.055 24.5113L33.806 24.5113C33.7329 24.748 33.6935 24.9997 33.6935 25.261L33.6935 27.1056L8.55375 27.1056C7.84461 27.1056 7.27519 26.5307 7.27519 25.811C7.27519 25.0863 7.84461 24.5113 8.55375 24.5113L11.3147 24.5113L11.3147 9.62769C11.3147 7.90373 12.2982 7.02063 13.9428 7.02063L36.2903 7.02063C38.0088 7.02063 38.9186 7.90373 38.9186 9.62769Z" fill="black" fill-opacity="0.85"/>
  <path d="M36.1939 28.0286C36.5718 28.0286 36.8487 27.7517 36.8487 27.4055L36.8487 25.261C36.8487 24.9042 36.5718 24.6223 36.1939 24.6223C35.8531 24.6223 35.5762 24.9042 35.5762 25.261L35.5762 27.4055C35.5762 27.7517 35.8531 28.0286 36.1939 28.0286Z" fill="black" fill-opacity="0.85"/>
  <path d="M39.0894 30.1231C39.4407 30.1231 39.7176 29.8517 39.7176 29.4737L39.7176 23.1661C39.7176 22.8204 39.4407 22.5379 39.0894 22.5379C38.7326 22.5379 38.4451 22.8204 38.4451 23.1661L38.4451 29.4737C38.4451 29.8517 38.7326 30.1231 39.0894 30.1231Z" fill="black" fill-opacity="0.85"/>
  <path d="M41.9583 32.222C42.3257 32.222 42.6027 31.9451 42.6027 31.5832L42.6027 21.0943C42.6027 20.7269 42.3257 20.45 41.9583 20.45C41.6015 20.45 41.3301 20.7269 41.3301 21.0943L41.3301 31.5832C41.3301 31.9556 41.591 32.222 41.9583 32.222Z" fill="black" fill-opacity="0.85"/>
  <path d="M44.8328 30.9996C45.1946 30.9996 45.4715 30.7227 45.4715 30.3608L45.4715 22.2901C45.4715 21.9438 45.1946 21.6669 44.8328 21.6669C44.4865 21.6669 44.199 21.9438 44.199 22.2901L44.199 30.3608C44.199 30.7227 44.4865 30.9996 44.8328 30.9996Z" fill="black" fill-opacity="0.85"/>
  <path d="M47.7123 28.7158C48.0796 28.7158 48.351 28.4388 48.351 28.0715L48.351 24.5739C48.351 24.2171 48.0796 23.9457 47.7123 23.9457C47.3554 23.9457 47.0785 24.2277 47.0785 24.5739L47.0785 28.0715C47.0785 28.4283 47.3554 28.7158 47.7123 28.7158Z" fill="black" fill-opacity="0.85"/>
 </g>
</svg>
