<?xml version="1.0" encoding="UTF-8"?>
<!--Generator: Apple Native CoreSVG 326-->
<!DOCTYPE svg
PUBLIC "-//W3C//DTD SVG 1.1//EN"
       "http://www.w3.org/Graphics/SVG/1.1/DTD/svg11.dtd">
<svg version="1.1" xmlns="http://www.w3.org/2000/svg" xmlns:xlink="http://www.w3.org/1999/xlink" viewBox="0 0 50.2337 34.1047">
 <g>
  <rect height="34.1047" opacity="0" width="50.2337" x="0" y="0"/>
  <path d="M13.767 8.84302C13.2885 9.01781 13.055 9.43283 13.055 10.087L13.055 24.5113L29.4353 24.5113L32.0296 27.1056L8.55375 27.1056C7.84461 27.1056 7.27519 26.5307 7.27519 25.811C7.27519 25.0863 7.84461 24.5113 8.55375 24.5113L11.3147 24.5113L11.3147 9.62769C11.3147 8.57418 11.682 7.83469 12.3446 7.4206ZM38.9186 9.62769L38.9186 20.6623C38.2362 20.7052 37.6106 21.013 37.1886 21.4911L37.1886 10.087C37.1886 9.19225 36.7413 8.74488 35.8411 8.74488L19.9499 8.74488L18.2257 7.02063L36.2903 7.02063C38.0088 7.02063 38.9186 7.90373 38.9186 9.62769Z" fill="black" fill-opacity="0.85"/>
  <path d="M36.8487 25.261L36.8487 25.6437L35.9023 24.6972C35.9891 24.6493 36.0884 24.6223 36.1939 24.6223C36.5718 24.6223 36.8487 24.9042 36.8487 25.261Z" fill="black" fill-opacity="0.85"/>
  <path d="M39.7176 23.1661L39.7176 29.4737C39.7176 29.8517 39.4407 30.1231 39.0894 30.1231C38.8463 30.1231 38.6353 29.997 38.5258 29.797C39.0223 29.029 38.996 28.0207 38.4451 27.2791L38.4451 23.1661C38.4451 22.8204 38.7326 22.5379 39.0894 22.5379C39.4407 22.5379 39.7176 22.8204 39.7176 23.1661Z" fill="black" fill-opacity="0.85"/>
  <path d="M42.6027 21.0943L42.6027 31.5832C42.6027 31.9451 42.3257 32.222 41.9583 32.222C41.591 32.222 41.3301 31.9556 41.3301 31.5832L41.3301 21.0943C41.3301 20.7269 41.6015 20.45 41.9583 20.45C42.3257 20.45 42.6027 20.7269 42.6027 21.0943Z" fill="black" fill-opacity="0.85"/>
  <path d="M45.4715 22.2901L45.4715 30.3608C45.4715 30.7227 45.1946 30.9996 44.8328 30.9996C44.4865 30.9996 44.199 30.7227 44.199 30.3608L44.199 22.2901C44.199 21.9438 44.4865 21.6669 44.8328 21.6669C45.1946 21.6669 45.4715 21.9438 45.4715 22.2901Z" fill="black" fill-opacity="0.85"/>
  <path d="M48.351 24.5739L48.351 28.0715C48.351 28.4388 48.0796 28.7158 47.7123 28.7158C47.3554 28.7158 47.0785 28.4283 47.0785 28.0715L47.0785 24.5739C47.0785 24.2277 47.3554 23.9457 47.7123 23.9457C48.0796 23.9457 48.351 24.2171 48.351 24.5739Z" fill="black" fill-opacity="0.85"/>
  <path d="M37.2603 27.9941C37.5919 28.3257 37.5919 28.8641 37.2603 29.1957C36.9286 29.5273 36.3902 29.5273 36.0586 29.1957L12.9735 6.11061C12.6418 5.779 12.6418 5.24055 12.9735 4.90894C13.3051 4.57733 13.8435 4.57733 14.1751 4.90894Z" fill="black" fill-opacity="0.85"/>
 </g>
</svg>